<?xml version="1.0" standalone="no"?><!DOCTYPE svg PUBLIC "-//W3C//DTD SVG 1.1//EN" "http://www.w3.org/Graphics/SVG/1.1/DTD/svg11.dtd"><svg t="1694419739135" class="icon" viewBox="0 0 1024 1024" version="1.1" xmlns="http://www.w3.org/2000/svg" p-id="3008" xmlns:xlink="http://www.w3.org/1999/xlink" width="200" height="200"><path d="M708.352 879.296h-392.746667a380.501333 380.501333 0 0 0-262.592 105.109333h917.930667a380.586667 380.586667 0 0 0-262.592-105.109333zM981.013333 153.386667v131.541333H42.986667V153.386667a79.189333 79.189333 0 0 1 79.104-79.104h779.797333a79.210667 79.210667 0 0 1 79.125333 79.104z" fill="#02C9ED" p-id="3009"></path><path d="M895.936 0H128.042667A128.213333 128.213333 0 0 0 0 128.042667v767.893333A128.213333 128.213333 0 0 0 128.042667 1024h767.893333A128.213333 128.213333 0 0 0 1024 895.936V128.042667A128.213333 128.213333 0 0 0 895.936 0zM128.042667 42.666667h767.893333A85.482667 85.482667 0 0 1 981.333333 128.042667v143.722666H42.666667V128.042667A85.461333 85.461333 0 0 1 128.042667 42.666667z m767.893333 938.666666H128.042667A85.482667 85.482667 0 0 1 42.666667 895.936V314.432h938.666666v581.504A85.504 85.504 0 0 1 895.936 981.333333z" p-id="3010"></path><path d="M266.88 743.936c-43.498667 0-71.744-36.053333-71.744-95.914667 0-59.114667 31.232-94.784 72.853333-94.784 20.842667 0 36.821333 9.664 50.56 23.04l28.992-34.944c-17.856-18.581333-45.738667-35.306667-80.661333-35.306666-69.525333 0-127.872 53.141333-127.872 143.850666 0 91.84 56.490667 141.653333 126.016 141.653334 35.690667 0 65.045333-14.122667 87.722667-40.512L323.754667 716.8c-14.869333 16-33.472 27.136-56.874667 27.136zM449.728 511.232l-88.106667 275.093333h55.744l19.328-70.634666h89.237334l19.306666 70.634666h57.621334l-88.469334-275.093333h-64.661333z m-1.130667 161.706667l8.192-30.122667a1994.410667 1994.410667 0 0 0 23.424-89.962667h1.472c8.192 29.76 15.616 61.333333 24.170667 89.962667l8.192 30.122667h-65.450667zM778.304 639.850667c-5.952 17.088-10.794667 35.306667-16.725333 53.141333h-1.877334c-5.568-17.834667-10.773333-36.053333-16.725333-53.141333l-46.826667-128.618667h-60.949333v275.093333h49.429333v-114.88c0-26.026667-4.458667-64.32-7.061333-90.325333h1.472l21.930667 64.682667 42.752 115.605333h31.594666l42.368-115.605333 22.314667-64.682667h1.472c-2.602667 26.026667-6.677333 64.32-6.677333 90.325333v114.88h50.197333V511.232h-60.970667l-45.717333 128.618667zM195.712 212.096a44.096 44.096 0 1 0 0-88.192 44.096 44.096 0 0 0 0 88.192zM342.762667 212.096a44.096 44.096 0 1 0 0-88.192 44.096 44.096 0 0 0 0 88.192zM521.002667 199.168a44.117333 44.117333 0 1 0-62.421334-62.378667 44.117333 44.117333 0 0 0 62.421334 62.378667z" p-id="3011"></path></svg>