<?xml version="1.0" standalone="no"?><!DOCTYPE svg PUBLIC "-//W3C//DTD SVG 1.1//EN" "http://www.w3.org/Graphics/SVG/1.1/DTD/svg11.dtd"><svg t="1694419729120" class="icon" viewBox="0 0 1024 1024" version="1.1" xmlns="http://www.w3.org/2000/svg" p-id="2855" xmlns:xlink="http://www.w3.org/1999/xlink" width="200" height="200"><path d="M995.555556 1024v-142.222222a170.666667 170.666667 0 0 0-170.666667-170.666667H369.777778a170.666667 170.666667 0 0 0-170.666667 170.666667v142.222222h796.444445z" fill="#FA743E" p-id="2856"></path><path d="M473.315556 714.126222c0 25.429333 67.128889 56.689778 124.017777 56.689778 56.888889 0 123.989333-31.260444 123.989334-56.661333V605.582222h-248.035556v108.544z" fill="#FFDC5D" p-id="2857"></path><path d="M473.088 657.664c34.588444 39.082667 77.482667 49.664 124.131556 49.664 46.648889 0 89.486222-10.609778 124.103111-49.664V558.364444h-248.263111v99.299556h0.028444z" fill="#F9CA55" p-id="2858"></path><path d="M703.459556 15.104c-54.755556-17.720889-183.608889-12.885333-215.836445 28.984889-83.740444 1.621333-181.987556 77.312-194.872889 177.152-12.743111 98.844444 15.672889 144.725333 25.770667 219.050667 11.463111 84.195556 58.794667 111.132444 96.625778 122.396444 54.442667 71.936 112.327111 68.864 209.521777 68.864 189.781333 0 280.177778-126.976 288.170667-342.670222 4.835556-130.417778-71.708444-229.233778-209.379555-273.777778z" fill="#FFAC33" p-id="2859"></path><path d="M812.003556 298.126222c-18.375111-25.429333-41.870222-45.909333-93.411556-53.134222 19.342222 8.846222 37.831111 39.452444 40.277333 56.376889 2.417778 16.924444 4.835556 30.606222-10.467555 13.681778-61.297778-67.754667-128.056889-41.073778-194.190222-82.460445-46.193778-28.899556-60.302222-60.899556-60.302223-60.899555s-5.603556 42.666667-75.662222 86.158222c-20.309333 12.600889-44.544 40.675556-57.969778 82.147555-9.671111 29.809778-6.656 56.376889-6.656 101.774223 0 132.551111 109.226667 243.996444 243.996445 243.996444 134.741333 0 243.996444-112.440889 243.996444-243.996444-0.056889-82.432-8.675556-114.659556-29.610666-143.644445z" fill="#FFDC5D" p-id="2860"></path><path d="M624.64 509.553778h-54.186667a13.568 13.568 0 1 1 0-27.136h54.215111a13.568 13.568 0 1 1 0 27.136z" fill="#C1694F" p-id="2861"></path><path d="M489.102222 414.663111a27.107556 27.107556 0 0 1-27.107555-27.107555v-27.107556a27.107556 27.107556 0 0 1 54.215111 0v27.107556a27.079111 27.079111 0 0 1-27.107556 27.107555z m216.917334 0a27.107556 27.107556 0 0 1-27.107556-27.107555v-27.107556a27.107556 27.107556 0 0 1 54.215111 0v27.107556a27.107556 27.107556 0 0 1-27.107555 27.107555z" fill="#662113" p-id="2862"></path><path d="M601.144889 622.762667c-78.336 0-102.4-20.053333-106.410667-24.120889a18.631111 18.631111 0 0 1 25.656889-27.022222c1.479111 1.052444 20.48 13.852444 80.753778 13.852444 62.577778 0 80.668444-13.795556 80.839111-13.937778a18.147556 18.147556 0 0 1 25.969778 0.426667 19.029333 19.029333 0 0 1-0.398222 26.680889c-4.039111 4.067556-28.074667 24.120889-106.410667 24.120889z" fill="#C1694F" p-id="2863"></path><path d="M938.666667 995.555556a28.444444 28.444444 0 0 1-28.444445 28.444444H625.777778a28.444444 28.444444 0 1 1 0-56.888889h284.444444a28.444444 28.444444 0 0 1 28.444445 28.444445z" fill="#E1E8ED" p-id="2864"></path><path d="M575.715556 625.777778H106.951111c-43.377778 0-98.958222 21.930667-70.513778 100.437333l87.381334 241.066667C123.847111 967.281778 135.111111 1024 199.111111 1024h568.888889l-113.777778-319.715556c-12.458667-37.603556-35.128889-78.506667-78.506666-78.506666z" fill="#E1E8ED" p-id="2865"></path><path d="M547.271111 625.777778H78.506667C35.100444 625.777778-20.48 647.708444 7.964444 726.215111l87.381334 241.066667C95.402667 967.281778 106.666667 1024 170.666667 1024h568.888889l-113.777778-319.715556c-12.458667-37.603556-35.128889-78.506667-78.506667-78.506666z" fill="#99AAB5" p-id="2866"></path><path d="M398.762667 832.938667c14.904889 44.714667 2.816 89.031111-26.993778 98.958222-29.809778 9.955556-66.048-18.232889-80.952889-62.947556s-2.816-89.031111 26.993778-98.958222c29.809778-9.927111 66.076444 18.232889 80.952889 62.947556zM540.444444 704H85.333333a21.333333 21.333333 0 0 1 0-42.666667h455.111111a21.333333 21.333333 0 0 1 0 42.666667z" fill="#E1E8ED" p-id="2867"></path></svg>